<?xml version="1.0" encoding="utf-8"?>
<!-- Generator: Adobe Illustrator 16.0.0, SVG Export Plug-In . SVG Version: 6.00 Build 0)  -->
<!DOCTYPE svg PUBLIC "-//W3C//DTD SVG 1.1//EN" "http://www.w3.org/Graphics/SVG/1.1/DTD/svg11.dtd">
<svg version="1.1" xmlns="http://www.w3.org/2000/svg" xmlns:xlink="http://www.w3.org/1999/xlink" x="0px" y="0px" width="1600px"
	 height="800px" viewBox="0 0 1600 800" enable-background="new 0 0 1600 800" xml:space="preserve">
<g id="BACKGROUND">
</g>
<g id="OBJECTS">
</g>
<g id="DESIGNED_BY_FREEPIK">
	<path fill="#EBF5FF" d="M662.616,800c0,0-140.804-21.147-82.828-190.328c57.981-169.181-41.414-177.11-125.62-155.963
		c-84.208,21.146-142.187,29.078-158.751-34.365C278.851,355.9,256.765,195.686,0,234.159V800H662.616z"/>
	<g>
		<g>
			<g>
				<path fill="#D7E8F7" d="M269.907,510.068V390.34H91.329v89.049c0,4.582,3.715,8.297,8.299,8.297h144.849L269.907,510.068z"/>
				<path fill="#214A81" d="M99.032,368.476h163.173c4.254,0,7.703,3.451,7.703,7.703v14.162H91.329v-14.162
					C91.329,371.927,94.778,368.476,99.032,368.476z"/>
			</g>
			<g>
				<circle fill="#C1DDF7" cx="220.919" cy="379.92" r="4.904"/>
				<circle fill="#C1DDF7" cx="236.563" cy="379.92" r="4.904"/>
				<circle fill="#C1DDF7" cx="252.204" cy="379.92" r="4.906"/>
			</g>
		</g>
		<g>
			<path fill="#F4C669" d="M277.144,610c-2.203,0-4.433-0.586-6.446-1.818c-5.841-3.564-7.687-11.192-4.12-17.033l37.072-60.713
				c3.572-5.847,11.197-7.683,17.034-4.119c5.843,3.564,7.688,11.192,4.12,17.033l-37.07,60.713
				C285.396,607.89,281.318,610,277.144,610z"/>
			<g>
				<polygon fill="#FFBDA1" points="327.693,505.561 330.248,538.365 353.155,535.907 343.569,489.416 				"/>
				<g>
					<path fill="#FFBDA1" d="M355.554,483.563c-1.171,14.182-13.618,24.729-27.8,23.557c-14.184-1.173-24.73-13.618-23.557-27.8
						c1.173-14.185,13.618-24.73,27.802-23.558C346.181,456.933,356.727,469.381,355.554,483.563z"/>
					<g>
						<defs>
							<circle id="SVGID_1_" cx="329.876" cy="481.439" r="25.766"/>
						</defs>
						<clipPath id="SVGID_2_">
							<use xlink:href="#SVGID_1_"  overflow="visible"/>
						</clipPath>
						<path clip-path="url(#SVGID_2_)" fill="#072042" d="M305.117,466.729c0,0-2.333,12.41,35.093,4.454l3.4,17.201
							c0,0,4.511,26.042,4.775,22.844c0.267-3.2,28.39-49-10.154-60.025C302.192,440.894,305.117,466.729,305.117,466.729z"/>
					</g>
					<circle fill="#FFBDA1" cx="343.915" cy="484.71" r="6.687"/>
				</g>
			</g>
			<path fill="#FFD474" d="M320.989,521.301h43.238c13.081,0,18.959,12.635,18.515,20.639l-9.934,81.554
				c-0.431,3.813-3.673,6.688-7.511,6.661l-52.84-0.379c-3.921-0.028-7.161-3.072-7.434-6.987l-5.449-78.531
				C298.711,531.845,308.548,521.301,320.989,521.301z"/>
			<path fill="#FFBDA1" d="M358.18,521.301l-37.437,0.03c0,0,1.879,13.962,18.823,13.962
				C356.509,535.293,358.18,521.301,358.18,521.301z"/>
			<circle fill="#072042" cx="366.282" cy="453.39" r="24.289"/>
			<path fill="#CADFEF" d="M512.652,637.443h-380.82c-2.709,0-4.908-2.196-4.908-4.908l0,0c0-2.711,2.198-4.909,4.908-4.909h380.82
				c2.711,0,4.912,2.198,4.912,4.909l0,0C517.564,635.247,515.363,637.443,512.652,637.443z"/>
			<path fill="#FFBDA1" d="M318.209,609.357c3.011-6.16,10.443-8.713,16.605-5.704c2.02,0.987,3.644,2.458,4.819,4.196l18.504,0.725
				l6.523,12.271l-26.029,2.205c-3.609,4.061-9.6,5.411-14.718,2.909C317.754,622.951,315.201,615.518,318.209,609.357z"/>
			<g>
				<rect x="296.552" y="620.465" fill="#CFD1D3" width="55.904" height="7.174"/>
				<path fill="#E2E4E9" d="M304.923,627.639h-84.267c-4.855,0-9.113-3.234-10.417-7.911l-16.431-59.036
					c-1.453-5.22,2.472-10.385,7.89-10.385h77.396c3.242,0,6.074,2.184,6.897,5.317L304.923,627.639z"/>
				<circle fill="#FFFFFF" cx="247.124" cy="593.756" r="7.972"/>
			</g>
			<path fill="#FFD474" d="M351.359,627.639l51.725-0.26c3.083-0.035,6.149-1.029,8.442-3.092c4.005-3.601,5.132-9.197,3.125-13.924
				l-33.643-77.858c-2.555-5.878-9.307-8.678-15.271-6.334l0,0c-6.239,2.449-9.226,9.563-6.609,15.731l25.865,61.207l-33.9,0.379
				L351.359,627.639z"/>
		</g>
		<g>
			<path fill="#D7E8F7" d="M336.126,402.75h49.211c3.601,0,6.521-2.918,6.521-6.521v-19.057c0-3.6-2.92-6.521-6.521-6.521h-49.211
				c-3.603,0-6.523,2.92-6.523,6.521v19.057C329.603,399.832,332.523,402.75,336.126,402.75z"/>
			<polygon fill="#D7E8F7" points="379.644,398.433 379.644,410.33 366.085,398.433 			"/>
		</g>
		<g>
			<g>
				<path fill="#D7E8F7" d="M419.869,569.06V449.688h101.7v88.783c0,4.569-3.706,8.275-8.275,8.275h-68.073L419.869,569.06z"/>
				<path fill="#214A81" d="M513.889,427.892H427.55c-4.241,0-7.681,3.438-7.681,7.679v14.117h101.7V435.57
					C521.569,431.329,518.132,427.892,513.889,427.892z"/>
			</g>
			<g>
				<path fill="#C1DDF7" d="M494.874,439.301c0,2.697,2.192,4.89,4.89,4.89c2.703,0,4.89-2.192,4.89-4.89
					c0-2.703-2.188-4.893-4.89-4.893C497.066,434.408,494.874,436.598,494.874,439.301z"/>
				<path fill="#C1DDF7" d="M479.278,439.301c0,2.697,2.19,4.89,4.892,4.89c2.698,0,4.89-2.192,4.89-4.89
					c0-2.703-2.192-4.893-4.89-4.893C481.468,434.408,479.278,436.598,479.278,439.301z"/>
				<path fill="#C1DDF7" d="M463.682,439.301c0,2.697,2.19,4.89,4.89,4.89c2.703,0,4.893-2.192,4.893-4.89
					c0-2.703-2.19-4.893-4.893-4.893C465.872,434.408,463.682,436.598,463.682,439.301z"/>
			</g>
		</g>
		<g>
			<circle fill="#F8FCFF" cx="474.88" cy="493.27" r="28.789"/>
		</g>
		<g>
			<path fill="#FFFFFF" d="M466.459,592.387H436.87c-0.524,0-0.949,0.423-0.949,0.947v22.451c0,6.534,5.297,11.83,11.829,11.83
				h7.828c6.532,0,11.829-5.296,11.829-11.83v-22.451C467.408,592.81,466.983,592.387,466.459,592.387z"/>
			<path fill="#FFFFFF" d="M462.912,623.744c6.677-3.771,18.132-14.897,16.224-22.728c-0.508-2.093-1.789-3.669-3.699-4.556
				c-4.426-2.056-10.76,0.427-11.468,0.718l2.108,4.395c1.53-0.62,5.264-1.638,7.022-0.816c0.357,0.167,0.749,0.453,0.958,1.313
				c1.114,4.563-7.853,14.18-13.86,17.571L462.912,623.744z"/>
		</g>
		<path fill="#84B4FE" d="M456.477,503.956h3.314v-8.404c0-1.831,1.49-3.321,3.321-3.321s3.321,1.49,3.321,3.321v8.407h4.455V491.61
			c0-1.829,1.487-3.319,3.318-3.319s3.321,1.49,3.321,3.319v12.349h4.452V480.08c0-1.831,1.491-3.32,3.322-3.32
			s3.319,1.489,3.319,3.32v23.876h3.314c0.488,0,0.885,0.398,0.885,0.885c0,0.489-0.396,0.885-0.885,0.885h-35.458
			c-0.486,0-0.882-0.396-0.882-0.885C455.594,504.354,455.99,503.956,456.477,503.956z"/>
		<g>
			<path fill="#214A81" d="M183.604,437.254c0.004-0.022-0.004-0.04-0.002-0.062c0.006-0.049,0.015-0.095,0.018-0.142
				c0-0.021,0.009-0.041,0.009-0.063v-37.811c20.221,0.775,36.376,17.402,36.376,37.811c0,20.903-16.946,37.847-37.849,37.847
				c-1.827,0-3.623-0.137-5.381-0.388c0.583-3.151,1.202-6.505,1.82-9.863C181.109,450.918,183.604,437.254,183.604,437.254z"/>
			<path fill="#84B4FE" d="M180.684,431.724L163.8,403.891c5.035-2.8,10.772-4.481,16.884-4.714V431.724z"/>
			<path fill="#C1DDF7" d="M161.282,405.42l19.402,31.587c-1.602,8.766-4.63,25.155-6.805,36.909
				c-16.457-3.673-28.865-18.055-29.532-35.456v-2.944C144.828,422.94,151.438,411.94,161.282,405.42z"/>
		</g>
		<g>
			<circle fill="#FFFFFF" cx="374.929" cy="386.852" r="3.298"/>
			<circle fill="#FFFFFF" cx="361.235" cy="386.852" r="3.298"/>
			<circle fill="#FFFFFF" cx="347.542" cy="386.852" r="3.298"/>
		</g>
	</g>
</g>
</svg>
