<?xml version="1.0"?>
<svg xmlns="http://www.w3.org/2000/svg" height="512px" viewBox="-73 0 512 512.00003" width="512px"><path d="m196.265625 128c-14.136719 0-25.597656 11.460938-25.597656 25.601562 0 14.136719 11.460937 25.597657 25.597656 25.597657 5.941406.039062 11.703125-2.019531 16.273437-5.808594 5.914063-4.871094 9.335938-12.132813 9.328126-19.789063.007812-3.136718-.570313-6.246093-1.707032-9.167968-3.855468-9.84375-13.320312-16.351563-23.894531-16.433594zm5.394531 32.238281c-1.515625 1.253907-3.425781 1.925781-5.394531 1.894531-4.710937 0-8.53125-3.820312-8.53125-8.53125 0-4.714843 3.820313-8.535156 8.53125-8.535156 3.542969.085938 6.695313 2.273438 8.015625 5.5625.359375.949219.535156 1.957032.519531 2.972656-.003906 2.570313-1.15625 5.003907-3.140625 6.636719zm0 0" fill="#7251ac"/><path d="m17.066406 401.066406h102.398438v34.132813h-76.796875c-22.648438 0-34.132813 8.609375-34.132813 25.601562v42.664063c0 4.714844 3.820313 8.535156 8.53125 8.535156h324.265625c4.714844 0 8.535157-3.820312 8.535157-8.535156v-42.664063c0-16.992187-11.488282-25.601562-34.132813-25.601562h-29.636719c56.3125-34.832031 87.378906-99.109375 79.683594-164.878907-7.695312-65.765624-52.757812-121.136718-115.59375-142.03125-9.867188-20.878906-30.828125-34.257812-53.921875-34.421874-16.070313-.003907-31.460937 6.492187-42.664063 18.011718v-18.011718c-.046874-10.808594-6.875-20.425782-17.066406-24.03125v-20.207032c10.191406-3.601562 17.019532-13.21875 17.066406-24.027344v-17.066406c0-4.714844-3.820312-8.535156-8.535156-8.535156h-102.398437c-4.714844 0-8.535157 3.820312-8.535157 8.535156v17.066406c.046876 10.808594 6.875 20.425782 17.066407 24.027344v20.207032c-10.191407 3.605468-17.019531 13.222656-17.066407 24.03125v136.53125c0 .113281.058594.207031.058594.316406.039063.898437.21875 1.78125.53125 2.621094.078125.1875.117188.375.195313.5625s.058593.214843.113281.316406l16.167969 32.332031v6.519531c0 23.5625 19.101562 42.667969 42.667969 42.667969 23.5625 0 42.667968-19.105469 42.667968-42.667969v-6.519531l16.210938-32.332031c.050781-.101563.058594-.214844.113281-.316406.050781-.101563.117187-.375.195313-.5625.3125-.84375.492187-1.730469.527343-2.628907 0-.101562.0625-.195312.0625-.308593v-35.078126c20.207031 20.875 52.585938 23.988282 76.398438 7.335938 42.199219 16.238281 66.8125 60.269531 58.53125 104.71875-8.277344 44.453125-47.089844 76.671875-92.308594 76.625h-8.53125v-17.066406c0-9.425782-7.640625-17.066406-17.066406-17.066406h-153.601563c-9.425781 0-17.066406 7.640624-17.066406 17.066406v17.066406c0 9.425781 7.640625 17.066406 17.066406 17.066406zm315.734375 59.734375v34.132813h-307.199219v-34.132813c0-4.003906 0-8.535156 17.066407-8.535156h273.066406c17.066406 0 17.066406 4.53125 17.066406 8.535156zm-264.535156-409.601562h51.199219v17.066406h-51.199219zm-17.066406-34.132813h85.335937v8.535156c0 4.710938-3.824218 8.53125-8.535156 8.53125h-68.265625c-4.714844 0-8.535156-3.820312-8.535156-8.53125zm71.527343 238.933594h-57.71875l-8.535156-17.066406h74.785156zm-28.859374 42.667969c-14.140626 0-25.601563-11.460938-25.601563-25.601563h51.199219c0 14.140625-11.460938 25.601563-25.597656 25.601563zm42.667968-76.800781h-85.335937v-128c0-4.714844 3.820312-8.535157 8.535156-8.535157h68.265625c4.710938 0 8.535156 3.820313 8.535156 8.535157zm17.066406-68.265626c-.035156-20.582031 14.625-38.253906 34.855469-42.019531s40.269531 7.445313 47.644531 26.65625c1.894532 4.898438 2.855469 10.109375 2.832032 15.363281.019531 12.742188-5.671875 24.824219-15.503906 32.929688-7.625 6.339844-17.246094 9.789062-27.164063 9.734375-23.550781-.027344-42.636719-19.113281-42.664063-42.664063zm153.597657 136.53125c.039062-42.882812-24.6875-81.9375-63.46875-100.242187.109375-.125.179687-.289063.28125-.425781 1.605469-2.15625 3.0625-4.421875 4.359375-6.773438.351562-.625.691406-1.246094 1.015625-1.886718 1.328125-2.539063 2.46875-5.171876 3.414062-7.875.042969-.121094.066407-.25.101563-.367188.859375-2.628906 1.535156-5.316406 2.015625-8.039062.136719-.726563.253906-1.441407.367187-2.175782.453125-2.894531.691406-5.820312.714844-8.746094 0-1.707031-.078125-3.414062-.214844-5.121093 58.660156 24.652343 96.046875 82.917969 94.011719 146.515625-2.035156 63.59375-43.070313 119.351562-103.183594 140.203125h-110.078125v-34.132813h59.730469c61.238281-.070312 110.863281-49.695312 110.933594-110.933594zm-290.132813 76.800782h153.601563v17.066406h-153.601563zm0 0" fill="#7251ac"/><path d="m76.800781 102.398438c-4.714843 0-8.535156 3.820312-8.535156 8.535156v42.667968c0 4.710938 3.820313 8.53125 8.535156 8.53125 4.710938 0 8.53125-3.820312 8.53125-8.53125v-42.667968c0-4.714844-3.820312-8.535156-8.53125-8.535156zm0 0" fill="#7251ac"/><path d="m76.800781 179.199219c-4.714843 0-8.535156 3.820312-8.535156 8.535156v8.53125c0 4.714844 3.820313 8.535156 8.535156 8.535156 4.710938 0 8.53125-3.820312 8.53125-8.535156v-8.53125c0-4.714844-3.820312-8.535156-8.53125-8.535156zm0 0" fill="#7251ac"/></svg>
